<?xml version="1.0" encoding="UTF-8"?>
<svg xmlns="http://www.w3.org/2000/svg" xmlns:xlink="http://www.w3.org/1999/xlink" height="16px" viewBox="0 0 16 16" width="16px"><filter id="a" height="100%" width="100%" x="0%" y="0%"><feColorMatrix color-interpolation-filters="sRGB" values="0 0 0 0 1 0 0 0 0 1 0 0 0 0 1 0 0 0 1 0"/></filter><mask id="b"><g filter="url(#a)"><path d="m -1.6 -1.6 h 19.2 v 19.2 h -19.2 z" fill-opacity="0.5"/></g></mask><clipPath id="c"><path d="m 0 0 h 1600 v 1200 h -1600 z"/></clipPath><mask id="d"><g filter="url(#a)"><path d="m -1.6 -1.6 h 19.2 v 19.2 h -19.2 z" fill-opacity="0.7"/></g></mask><clipPath id="e"><path d="m 0 0 h 1600 v 1200 h -1600 z"/></clipPath><mask id="f"><g filter="url(#a)"><path d="m -1.6 -1.6 h 19.2 v 19.2 h -19.2 z" fill-opacity="0.35"/></g></mask><clipPath id="g"><path d="m 0 0 h 1600 v 1200 h -1600 z"/></clipPath><g mask="url(#b)"><g clip-path="url(#c)" transform="matrix(1 0 0 1 -160 -760)"><path d="m 550 182 c -0.351562 0.003906 -0.695312 0.101562 -1 0.28125 v 3.4375 c 0.304688 0.179688 0.648438 0.277344 1 0.28125 c 1.105469 0 2 -0.894531 2 -2 s -0.894531 -2 -2 -2 z m 0 5 c -0.339844 0 -0.679688 0.058594 -1 0.175781 v 6.824219 h 4 v -4 c 0 -1.65625 -1.34375 -3 -3 -3 z m 0 0"/></g></g><g mask="url(#d)"><g clip-path="url(#e)" transform="matrix(1 0 0 1 -160 -760)"><path d="m 569 182 v 4 c 1.105469 0 2 -0.894531 2 -2 s -0.894531 -2 -2 -2 z m 0 5 v 7 h 3 v -4 c 0 -1.65625 -1.34375 -3 -3 -3 z m 0 0"/></g></g><g mask="url(#f)"><g clip-path="url(#g)" transform="matrix(1 0 0 1 -160 -760)"><path d="m 573 182.269531 v 3.449219 c 0.613281 -0.355469 0.996094 -1.007812 1 -1.71875 c 0 -0.714844 -0.382812 -1.375 -1 -1.730469 z m 0 4.90625 v 6.824219 h 2 v -4 c 0 -1.269531 -0.800781 -2.402344 -2 -2.824219 z m 0 0"/></g></g><g fill="#222222"><path d="m 13.023438 9.050781 l -1 0.003907 h -10 v 3.855468 c 0 1.1875 0.957031 2.144532 2.144531 2.144532 h 5.714843 c 0.898438 0 1.660157 -0.550782 1.980469 -1.328126 c 0.355469 0.195313 0.753907 0.300782 1.160157 0.308594 c 1.382812 0 2.5 -1.121094 2.5 -2.5 s -1.117188 -2.484375 -2.5 -2.484375 z m 0 1.019531 c 0.808593 0 1.464843 0.65625 1.464843 1.464844 s -0.65625 1.464844 -1.464843 1.464844 c -0.378907 -0.019531 -0.738282 -0.183594 -1 -0.460938 v -2.007812 c 0.261718 -0.277344 0.621093 -0.441406 1 -0.460938 z m 0 0"/><path d="m 5.988281 1 v 0.515625 c 0 0.820313 0.675781 1.5 1.5 1.5 h 3 c 0.28125 0 0.5 0.214844 0.5 0.5 c 0 0.28125 -0.21875 0.5 -0.5 0.5 h -7 c -0.824219 0 -1.5 0.675781 -1.5 1.5 c 0 0.820313 0.675781 1.5 1.5 1.5 h 4 c 0.28125 0 0.5 0.214844 0.5 0.5 v 0.484375 h 1 v -0.484375 c 0 -0.824219 -0.679687 -1.5 -1.5 -1.5 h -4 c -0.285156 0 -0.5 -0.21875 -0.5 -0.5 c 0 -0.285156 0.214844 -0.5 0.5 -0.5 h 7 c 0.820313 0 1.5 -0.679687 1.5 -1.5 c 0 -0.824219 -0.679687 -1.5 -1.5 -1.5 h -3 c -0.285156 0 -0.5 -0.21875 -0.5 -0.5 v -0.515625 z m 0 0"/></g></svg>
