<?xml version="1.0" encoding="UTF-8"?>
<svg height="16px" viewBox="0 0 16 16" width="16px" xmlns="http://www.w3.org/2000/svg">
    <path d="m 4 0 c -2.199219 0 -4 1.800781 -4 4 v 6 c 0 2.199219 1.800781 4 4 4 h 8 c 2.199219 0 4 -1.800781 4 -4 v -6 c 0 -2.199219 -1.800781 -4 -4 -4 z m 0 2 h 8 c 1.125 0 2 0.875 2 2 v 6 c 0 1.125 -0.875 2 -2 2 h -8 c -1.125 0 -2 -0.875 -2 -2 v -6 c 0 -1.125 0.875 -2 2 -2 z m 0 0"/>
    <path d="m 11 4 c -0.265625 0 -0.519531 0.105469 -0.707031 0.292969 l -3.292969 3.292969 l -1.292969 -1.292969 c -0.390625 -0.390625 -1.023437 -0.390625 -1.414062 0 s -0.390625 1.023437 0 1.414062 l 2 2 c 0.390625 0.390625 1.023437 0.390625 1.414062 0 l 4 -4 c 0.390625 -0.390625 0.390625 -1.023437 0 -1.414062 c -0.1875 -0.1875 -0.441406 -0.292969 -0.707031 -0.292969 z m 0 0"/>
    <path d="m 0 11 v 1 c 0 2.199219 1.800781 4 4 4 h 8 c 2.199219 0 4 -1.800781 4 -4 v -1 c 0 2.199219 -1.800781 4 -4 4 h -8 c -2.199219 0 -4 -1.800781 -4 -4 z m 0 0"/>
</svg>
