<?xml version="1.0" encoding="UTF-8"?>
<svg height="16px" viewBox="0 0 16 16" width="16px" xmlns="http://www.w3.org/2000/svg">
    <path d="m 5 0 c -0.550781 0 -1 0.449219 -1 1 v 1 h 8 v -1 c 0 -0.550781 -0.449219 -1 -1 -1 z m -2 3 c -1.660156 0 -3 1.339844 -3 3 v 3 c 0 1.660156 1.339844 3 3 3 v 1 c 0 0.976562 0.5 2 2 2 h 6 c 1.5 0 2 -1.269531 2 -2 v -1 c 1.660156 0 3 -1.339844 3 -3 v -3 c 0 -1.660156 -1.339844 -3 -3 -3 z m 0 2 h 10 c 0.554688 0 1 0.445312 1 1 v 3 c 0 0.554688 -0.445312 1 -1 1 v -1 c 0 -1.109375 -0.890625 -2 -2 -2 h -6 c -1.109375 0 -2 0.890625 -2 2 v 1 c -0.554688 0 -1 -0.445312 -1 -1 v -3 c 0 -0.554688 0.445312 -1 1 -1 z m 2 4 h 6 v 4 h -6 z m 0 0" fill="#222222"/>
</svg>
