<?xml version="1.0" encoding="UTF-8"?>
<svg height="128px" viewBox="0 0 128 128" width="128px" xmlns="http://www.w3.org/2000/svg" xmlns:xlink="http://www.w3.org/1999/xlink">
    <linearGradient id="a" gradientUnits="userSpaceOnUse">
        <stop offset="0" stop-opacity="0.152941"/>
        <stop offset="1" stop-opacity="0"/>
    </linearGradient>
    <linearGradient id="b" x1="116" x2="122" xlink:href="#a" y1="88" y2="88"/>
    <linearGradient id="c" gradientUnits="userSpaceOnUse" x1="40" x2="40" y1="116" y2="122">
        <stop offset="0" stop-opacity="0.14902"/>
        <stop offset="1" stop-opacity="0"/>
    </linearGradient>
    <linearGradient id="d" gradientUnits="userSpaceOnUse" x1="6" x2="12" y1="40" y2="40">
        <stop offset="0" stop-opacity="0"/>
        <stop offset="1" stop-opacity="0.152941"/>
    </linearGradient>
    <linearGradient id="e" x1="88" x2="88" xlink:href="#a" y1="12" y2="6"/>
    <path d="m 34.957031 125.617188 l 85.003907 -22.777344 c 4.265624 -1.144532 6.800781 -5.53125 5.65625 -9.796875 l -22.777344 -85.003907 c -1.144532 -4.265624 -5.53125 -6.796874 -9.796875 -5.65625 l -85.003907 22.777344 c -4.265624 1.144532 -6.800781 5.53125 -5.65625 9.796875 l 22.777344 85.003907 c 1.144532 4.265624 5.53125 6.800781 9.796875 5.65625 z m 0 0" fill="#e6d982"/>
    <path d="m 116 57.152344 v 46.746094 l 3.957031 -1.058594 c 4.28125 -1.148438 6.808594 -5.515625 5.660157 -9.796875 z m 0 0" fill="url(#b)"/>
    <path d="m 70.847656 116 h -46.75 l 1.0625 3.957031 c 1.148438 4.28125 5.515625 6.808594 9.796875 5.660157 z m 0 0" fill="url(#c)"/>
    <path d="m 12 70.847656 v -46.746094 l -3.960938 1.058594 c -4.277343 1.148438 -6.804687 5.515625 -5.65625 9.796875 z m 0 0" fill="url(#d)"/>
    <path d="m 94.644531 2.121094 c -0.53125 0.03125 -1.066406 0.121094 -1.601562 0.265625 l -35.886719 9.613281 h 46.742188 l -1.058594 -3.957031 c -1.003906 -3.746094 -4.476563 -6.148438 -8.195313 -5.921875 z m 0 0" fill="url(#e)"/>
    <path d="m 20 12 h 88 c 4.417969 0 8 3.582031 8 8 v 88 c 0 4.417969 -3.582031 8 -8 8 h -88 c -4.417969 0 -8 -3.582031 -8 -8 v -88 c 0 -4.417969 3.582031 -8 8 -8 z m 0 0" fill="#fbf598"/>
    <g fill-opacity="0.14902">
        <path d="m 12 24 h 104 v 2 h -104 z m 0 0"/>
        <path d="m 12 40 h 104 v 2 h -104 z m 0 0"/>
        <path d="m 12 56 h 104 v 2 h -104 z m 0 0"/>
        <path d="m 12 72 h 104 v 2 h -104 z m 0 0"/>
        <path d="m 12 88 h 104 v 2 h -104 z m 0 0"/>
        <path d="m 12 104 h 104 v 2 h -104 z m 0 0"/>
        <path d="m 32 12 v 104 h -4 v -104 z m 0 0"/>
    </g>
    <path d="m 29 35 l 6 6 l 11 -12" fill="none" stroke="#5f5f92" stroke-linecap="round" stroke-linejoin="round" stroke-width="6"/>
    <path d="m 58 28 h 35 c 1.65625 0 3 1.34375 3 3 s -1.34375 3 -3 3 h -35 c -1.65625 0 -3 -1.34375 -3 -3 s 1.34375 -3 3 -3 z m 0 0" fill="#5f5f92"/>
    <path d="m 58 38 h 25 c 1.65625 0 3 1.34375 3 3 s -1.34375 3 -3 3 h -25 c -1.65625 0 -3 -1.34375 -3 -3 s 1.34375 -3 3 -3 z m 0 0" fill="#5f5f92"/>
    <path d="m 29 63 l 6 6 l 11 -12" fill="none" stroke="#5f5f92" stroke-linecap="round" stroke-linejoin="round" stroke-width="6"/>
    <path d="m 58 56 h 39 c 1.65625 0 3 1.34375 3 3 s -1.34375 3 -3 3 h -39 c -1.65625 0 -3 -1.34375 -3 -3 s 1.34375 -3 3 -3 z m 0 0" fill="#5f5f92"/>
    <path d="m 58 66 h 20 c 1.65625 0 3 1.34375 3 3 s -1.34375 3 -3 3 h -20 c -1.65625 0 -3 -1.34375 -3 -3 s 1.34375 -3 3 -3 z m 0 0" fill="#5f5f92"/>
    <path d="m 29 91 l 6 6 l 11 -12" fill="none" stroke="#5f5f92" stroke-linecap="round" stroke-linejoin="round" stroke-width="6"/>
    <path d="m 58 84 h 39 c 1.65625 0 3 1.34375 3 3 s -1.34375 3 -3 3 h -39 c -1.65625 0 -3 -1.34375 -3 -3 s 1.34375 -3 3 -3 z m 0 0" fill="#5f5f92"/>
    <path d="m 58 94 h 31 c 1.65625 0 3 1.34375 3 3 s -1.34375 3 -3 3 h -31 c -1.65625 0 -3 -1.34375 -3 -3 s 1.34375 -3 3 -3 z m 0 0" fill="#5f5f92"/>
</svg>
